<?xml version="1.0" encoding="UTF-8"?>
<svg id="Layer_1" data-name="Layer 1" xmlns="http://www.w3.org/2000/svg" viewBox="0 0 153.76 213.71">
  <defs>
    <style>
      .cls-1 {
        fill: #ff9e18;
      }

      .cls-2 {
        fill-rule: evenodd;
      }

      .cls-2, .cls-3 {
        fill: #79242f;
      }
    </style>
  </defs>
  <g>
    <path class="cls-1" d="M144.59,92.5c.17-.09.35-.17.52-.26,4.08-2.17,8.29-7.6,8.09-14.58,0-5.05-2.59-10.8-7.51-13.98,1.27-1.38,2.46-2.97,3.5-4.82.02-.03.03-.06.05-.09,2.25-4.15,4.3-10.84,3.29-17.2-.91-5.77-4.62-11.34-9.81-14.88.01-.03.03-.06.04-.09.75-1.71.83-3.56.36-5.26.52-.79.87-1.7,1-2.69.34-2.68-1.07-5.28-3.49-6.46-.58-.28-1.08-.53-1.55-.75.06-.57.12-1.18.2-1.89.3-2.75-1.22-5.37-3.76-6.47-2.54-1.1-5.49-.43-7.3,1.66-.32.37-.61.7-.88,1.02l-.98-.47c-2.12-1.02-4.6-.76-6.46.59-.53-.13-1.08-.18-1.63-.16-2.4-2.48-5.19-3.73-6.39-4.18-2.66-1.03-4.77-1.29-5.81-1.41-.03,0-.07,0-.1-.01l-.31-.03c-.15-.02-.29-.03-.44-.03-3.48-.13-5.9.38-7.42.77-1.11-.23-2.28-.16-3.39.23-2.09.74-3.63,2.51-4.08,4.68-.91-.11-1.85-.03-2.76.27-1.23-.78-2.52-1.51-3.88-2.13-5.75-2.74-12.27-3.53-17.98-2.15-3.37.85-6.4,2.15-9.08,3.87-1.34-1.86-3.6-2.87-5.9-2.58-1.48-1.74-3.81-2.56-6.1-2.09-2.32.49-4.14,2.22-4.78,4.45-1.03.31-1.94.89-2.66,1.63-4.52-2.08-9.53-2.43-13.93-.91-4.29,1.4-8.09,4.43-10.65,8.46-5.09,7.79-3.24,16.92,1.12,21.72-1.45.04-2.88.56-4.02,1.58-2.05,1.82-2.68,4.75-1.58,7.26.26.58.48,1.08.68,1.55-.32.33-.66.69-1.04,1.1-1.84,1.95-2.25,4.86-1.02,7.24,1.23,2.38,3.84,3.73,6.5,3.35.22-.03.43-.06.63-.09.07.17.15.34.23.53-3.63,2.27-6.21,5.77-7.15,9.74-2.44,8.08,1.32,17.24,8.48,20.63.49.25.99.46,1.49.65-5.73,4.02-9.05,11.41-8.5,18.93.53,7.16,4.43,12.97,10.7,15.94.03.01.06.03.09.04,2.75,1.26,5.74,1.87,8.71,1.87,3.78,0,7.53-1,10.75-2.98.57-.35,1.12-.75,1.66-1.17,2.62,4.11,6.72,5.96,8.18,6.5,2.68,1.01,4.77,1.22,5.81,1.32l.23.03c.21.02.43.04.64.04.11,0,.23,0,.34,0,3.19,0,5.43-.54,6.86-.98,1.1.19,2.25.09,3.32-.33,2.07-.79,3.58-2.62,3.96-4.81l.02-.14c.63.04,1.27,0,1.9-.17.15-.04.3-.1.45-.15,1.17.73,2.38,1.42,3.67,1.99,5.75,2.72,12.21,3.38,17.83,1.76,3.08-.92,5.85-2.25,8.31-3.94.02,0,.04.02.06.02-.03,2.76,1.76,5.18,4.38,6.04.64.21,1.29.31,1.93.31,2.02,0,3.98-.97,5.19-2.68.18-.25.34-.48.5-.7l.61.15c2.61.65,5.34-.42,6.81-2.66.43-.65.7-1.36.87-2.09,3.5,1.92,7.07,2.91,10.55,2.91,2.39,0,4.74-.46,7-1.39,4.13-1.52,7.63-4.83,9.63-9.1,1.97-4.23,2.29-8.94.88-12.99-1.02-3.71-3.05-6.74-5.69-8.87Z"/>
    <path class="cls-3" d="M142.19,92.27c.77-.27,1.56-.62,2.36-1.07,3.77-2,7.67-7.04,7.48-13.52,0-5.12-2.84-11.02-8.23-13.74,1.6-1.53,3.1-3.4,4.38-5.67.01-.02.03-.05.04-.08,2.16-3.98,4.12-10.38,3.16-16.45-.9-5.69-4.89-11.4-10.21-14.67.2-.3.37-.62.52-.96.71-1.63.72-3.42.14-5,.6-.73,1-1.63,1.13-2.62.27-2.18-.87-4.29-2.84-5.25-.9-.44-1.61-.79-2.29-1.12.08-.81.17-1.65.28-2.72.24-2.23-.99-4.36-3.05-5.26s-4.46-.35-5.93,1.35c-.57.66-1.03,1.2-1.47,1.71l-1.8-.87c-1.89-.92-4.14-.58-5.68.82-.76-.27-1.57-.36-2.38-.26-2.32-2.59-5.19-3.85-6.3-4.27-2.54-.99-4.57-1.23-5.56-1.35-.03,0-.05,0-.08-.01l-.31-.03c-.12-.01-.24-.02-.36-.03-3.54-.12-5.88.41-7.36.81-.98-.26-2.03-.22-3.01.13-1.7.6-2.96,2.05-3.32,3.82l-.05.25c-.07.32-.11.63-.15.93-1.11-.4-2.35-.42-3.51,0-.11.04-.23.09-.34.14-1.35-.88-2.76-1.69-4.25-2.37-5.43-2.59-11.83-3.37-17.19-2.08-3.69.93-6.95,2.41-9.76,4.4-.06-.13-.12-.27-.19-.4-1.06-2-3.32-3.07-5.53-2.63l-.29.06c-1.15-1.77-3.28-2.65-5.35-2.22-2.1.44-3.7,2.14-4.02,4.26-.1.02-.21.05-.32.07-1.26.29-2.32,1.03-3.03,2.03-4.45-2.3-9.49-2.75-13.86-1.23-4.04,1.32-7.61,4.17-10.04,7.99-3.64,5.58-4.21,14.72,1.12,20.41,1.14,1.29,2.34,2.27,3.49,3.01-.11.11-.22.22-.32.33-.42-.24-.86-.51-1.38-.81-1.92-1.12-4.35-.89-6.01.59-1.66,1.48-2.18,3.87-1.28,5.9.39.89.7,1.59,1,2.27-.47.5-.97,1.02-1.58,1.67-1.5,1.59-1.83,3.95-.83,5.88,1,1.94,3.11,3.03,5.28,2.72.57-.08,1.07-.15,1.53-.22.25.57.51,1.17.82,1.9.06.13.12.27.19.39-.14.07-.28.15-.41.23-3.63,2.1-6.21,5.49-7.11,9.35-2.3,7.55,1.19,16.12,7.86,19.26,1.11.56,2.32.98,3.59,1.25-.57.41-1.17.85-1.8,1.33-5.48,3.76-8.67,10.8-8.13,17.98.5,6.72,4.15,12.18,10.09,14.99,2.6,1.19,5.41,1.77,8.22,1.77,3.56,0,7.1-.95,10.13-2.8.91-.56,1.79-1.22,2.6-1.97,2.32,4.65,6.79,6.65,8.27,7.2,2.54.96,4.53,1.16,5.52,1.25l.24.03c.17.02.35.03.52.03.11,0,.22,0,.32,0,3.23,0,5.44-.59,6.8-1.01.97.22,2,.15,2.96-.21,1.69-.64,2.91-2.13,3.22-3.9l.05-.31c.06-.34.1-.66.12-.98.84.24,1.74.26,2.63.04.3-.08.59-.18.87-.31,1.28.83,2.62,1.6,4.02,2.23,5.41,2.57,11.74,3.21,16.99,1.7,3.16-.95,5.99-2.32,8.46-4.11.18.07.36.12.55.17l.89.22c0,.29,0,.6,0,.94-.02,2.24,1.43,4.21,3.56,4.9.52.17,1.04.25,1.57.25,1.64,0,3.24-.8,4.23-2.18.37-.51.68-.95.97-1.36.18.05.37.09.56.14l.83.21c2.12.53,4.34-.34,5.53-2.16.68-1.04.95-2.26.81-3.43,3.83,2.46,7.78,3.71,11.6,3.71,2.25,0,4.45-.43,6.56-1.3,3.85-1.41,7.12-4.5,8.99-8.5,1.85-3.96,2.15-8.37.82-12.14-1.16-4.21-3.68-7.5-6.95-9.46ZM140.61,77.34s-.05-.05-.08-.08c.01-.05.03-.09.04-.14.01.07.03.15.04.22ZM98.11,4.63h0s-.01.02-.02.03v-.03s0,0,.02,0Z"/>
    <g>
      <path class="cls-1" d="M41.41,97.32s4.88,4.15,11.77,2.84c-4.1,2.13-8.8,2.59-11.77-2.84Z"/>
      <path class="cls-1" d="M27.49,26.62c-.92.28-1.85-.22-2.08-1.12-.23-.9.32-1.86,1.23-2.14.92-.28,1.84.22,2.08,1.11.23.9-.32,1.86-1.23,2.14Z"/>
      <path class="cls-1" d="M29.03,22.02c-.64.19-1.28-.15-1.44-.77-.16-.62.23-1.28.86-1.47.63-.19,1.28.15,1.44.77.16.62-.23,1.28-.86,1.47Z"/>
      <path class="cls-1" d="M107,17.55c-.86.36-1.89-.07-2.29-.97-.41-.9-.03-1.92.83-2.27.86-.36,1.88.07,2.28.96.41.89.04,1.91-.81,2.28Z"/>
      <path class="cls-1" d="M105.71,13.23c-.63.24-1.38-.05-1.68-.65-.3-.61-.03-1.3.59-1.53.62-.24,1.37.05,1.67.65.3.6.03,1.3-.59,1.54Z"/>
      <path class="cls-1" d="M103.13,14.67c-.45.18-.99-.04-1.21-.47-.21-.44-.02-.95.43-1.12.46-.18.99.03,1.21.47.21.44.02.93-.43,1.11Z"/>
      <path class="cls-1" d="M22.86,104.6c-.39.1-.78-.12-.86-.5-.1-.38.15-.79.54-.89.39-.11.78.12.87.51.08.38-.17.78-.55.89Z"/>
      <path class="cls-1" d="M142.84,78.45c-.39.1-.77-.12-.86-.5-.09-.39.15-.78.55-.9.39-.11.78.12.86.5.09.39-.16.78-.55.9Z"/>
      <path class="cls-1" d="M65.18,21.7c-.92.44-2.04.08-2.51-.81-.45-.88-.08-1.95.85-2.38.92-.43,2.04-.07,2.5.81.46.88.08,1.94-.84,2.38Z"/>
      <path class="cls-1" d="M59.93,22.8c-.73.36-1.63.07-1.98-.63-.36-.7-.06-1.56.68-1.91.73-.35,1.62-.06,1.98.64.36.7.06,1.56-.67,1.91Z"/>
      <path class="cls-1" d="M121.67,99.24c-.44.4-1.1.39-1.48-.02-.39-.42-.34-1.07.11-1.48.44-.39,1.1-.38,1.48.03.37.41.33,1.07-.11,1.46Z"/>
      <path class="cls-1" d="M122.9,25.72c-.38.24-.9.11-1.17-.29-.26-.41-.17-.93.22-1.18.38-.24.91-.12,1.17.29.26.4.17.93-.22,1.18Z"/>
      <path class="cls-1" d="M134.06,39.42c.15-.79.88-1.28,1.61-1.08.73.19,1.2.99,1.04,1.77-.15.8-.88,1.28-1.61,1.09-.73-.19-1.2-.99-1.05-1.78Z"/>
      <path class="cls-1" d="M70.3,23.2c-9.56,1.79-17.76,7.2-23.08,15.22h0s0,.01,0,.02l.26.18.75-1,1.42-1.84c1.73-2.13,6.35-4.61,8.57-3.54,1.14.56,1.48,2.01.97,4.3l.3.1c1.04-2.19,1.56-3.79,1.56-4.9,0-.57-.13-1-.4-1.31-.19-.24-.47-.37-.8-.47,1.22-.06,2.29.16,3.04.69.87.63,1.33,1.63,1.33,2.97l.31.07c.55-1.17.76-2.08.76-2.79,0-.98-.4-1.56-.85-1.91-.54-.43-1.33-.61-2.23-.64,1.83-.25,3.56-.2,4.87.3,1.28.5,2,1.38,2.12,2.64l.31.04c.75-1.98.13-3.09-.52-3.67-.96-.86-2.68-1.17-4.66-1,.91-.18,1.84-.31,2.75-.36,3.78-.1,6.65,1.04,7.48,2.97l.2.47.1-.51c.04-.22.06-.43.06-.64,0-.83-.35-1.54-1.01-2.1-.72-.6-1.84-.99-3.14-1.19,3.53.12,7.17.98,8.79,3.01l.28.35s0-.47,0-.47c0-.74-.35-1.42-1.05-2-.94-.79-2.46-1.33-4.21-1.62,3.89.28,7.82,1.39,9.66,3.31l.26-.19c-.9-1.51-2.84-2.71-5.3-3.42,4.33.7,8.91,2.5,11.02,4.52l.24-.21s-.02-.02-.02-.02c-1.55-1.98-4.46-3.68-7.69-4.61,7.64.97,12.56,4,14.28,5.07.6.39.71.45.84.39l.24-.12-.21-.17c-7.84-5.57-17.9-7.73-27.59-5.91Z"/>
      <path class="cls-1" d="M29.37,55.31c.83.44,1.86.08,2.27-.81.41-.88.06-1.97-.78-2.41-.85-.44-1.86-.07-2.26.82-.41.89-.07,1.96.77,2.41Z"/>
      <path class="cls-1" d="M26.09,57.83c.49.27,1.1.06,1.33-.48.24-.53.03-1.18-.46-1.44-.5-.27-1.09-.05-1.33.48-.25.53-.04,1.18.46,1.44Z"/>
      <path class="cls-1" d="M23.36,58.1c.26.14.6.03.73-.26.13-.29.01-.66-.27-.8-.27-.15-.59-.02-.73.27-.13.29-.01.65.26.8Z"/>
      <path class="cls-1" d="M138.92,77.19c-.68-.42-.91-1.35-.48-2.06.42-.71,1.32-.95,1.99-.52.69.42.9,1.35.48,2.06-.42.71-1.31.95-2,.52Z"/>
      <path class="cls-1" d="M117.79,27.52c.02-.74.65-1.28,1.38-1.22.74.06,1.32.71,1.3,1.46-.02.73-.64,1.29-1.38,1.22-.74-.06-1.32-.72-1.3-1.46Z"/>
      <path class="cls-1" d="M112.04,29.65c-.21-1.13.53-2.16,1.64-2.31,1.12-.15,2.19.63,2.4,1.75.22,1.12-.52,2.16-1.64,2.32-1.12.15-2.19-.63-2.4-1.76Z"/>
      <path class="cls-1" d="M134.33,22.66c.33-.76,1.19-1.05,1.93-.67.73.39,1.05,1.31.72,2.06-.33.75-1.19,1.05-1.92.67-.73-.39-1.06-1.31-.73-2.06Z"/>
      <path class="cls-1" d="M45.41,19.76c-.42-.5-.31-1.25.23-1.67.55-.43,1.32-.37,1.74.13.42.51.31,1.25-.23,1.68-.55.43-1.32.37-1.74-.14Z"/>
      <path class="cls-1" d="M54.99,24.29c-.19-.3-.09-.7.23-.89.32-.19.73-.08.92.22.2.3.09.7-.23.89-.32.18-.74.09-.93-.22Z"/>
      <path class="cls-1" d="M86.42,110.89c-1.01-.19-1.99.45-2.22,1.42-.22.97.43,1.91,1.42,2.09,1.01.19,2-.46,2.22-1.43.21-.95-.42-1.9-1.42-2.08Z"/>
      <path class="cls-1" d="M81.06,111.17c-.8-.16-1.59.35-1.76,1.11-.16.78.34,1.52,1.14,1.67.8.15,1.58-.35,1.75-1.12.17-.77-.34-1.52-1.14-1.67Z"/>
      <path class="cls-1" d="M75.9,110.99c-.09.35.1.7.46.8.35.1.73-.1.84-.44.11-.35-.1-.71-.46-.81-.36-.09-.73.11-.84.45Z"/>
      <path class="cls-1" d="M54.24,17.21c-9.58,6.59-9.93,19.12-9.92,19.23l.14,2.05.52-1.99c.76-2.88,2.84-6.32,3.46-6.66l.36-.19-.27-.32c-.25-.3-.62-.41-1.04-.36,1.15-2.97,4.18-9.11,10.48-11.98,3.91-1.91,8.47-2.82,11.91-2.4,3.4.33,5.56,1.49,6.27,1.87l.09.05c.88.51,1.37,1.03,1.38,1.49.01.41-.36.72-.53.83l-.5.33.54.24c.45.2,1.06.14,1.54-.16.13-.08.2-.18.3-.28.42.92.98,1.12,2.09,1.44l.33.1.14-.32c.07-.27.09-.51.09-.74,0-.79-.38-1.26-.84-1.58.58-.4.65-1.05.65-1.65v-.62l-.51.34c-.26.16-1.74.55-3.9-.73,0,0-.09-.05-.09-.05-2.92-1.65-5.95-2.12-7.99-2.22-4.61-.3-10.38,1.37-14.71,4.27Z"/>
      <path class="cls-1" d="M52.25,97.92c.19.11-5.88-1.46-10.66-8.6-2.6-3.46-3.28-8.29-4.71-13.52-1.5-4.93-4.35-11.29-10.46-12.85-5.73-1.87-12.16,1.66-13.34,7.19-1.68,5.22.78,11.31,5.15,13.32,4.22,2.18,8.86.91,10.76-1.56,1.97-2.45,1.85-4.86,1.81-5.63-.08-3.37-2.36-5.21-3.1-6.46-.94-1.3-1.21-2.3-1.14-2.59-2.62,1.06-2.76,2.9-1.54,3.88-3.04-1.33-5.43-.24-4.54,2.81,1.01-.8,1.69-.53,2.2-.66.56-.06,1.19-.52,2.9-.92-1.6.92-.84,2.35-.4,3.49.18-.68.53-1.59,1.5-1.95.89-.37,2.93-.16,3.02,2.91-.02.64-.08,2.45-1.5,4.26-1.31,1.85-4.51,3.04-7.91,2.07-3.38-.85-6.48-4.37-6.64-8.62-.3-4.18,1.77-8.76,5.87-10.24,4-1.52,9.05-.25,11.74,2.95,2.79,3.2,4.06,7.2,4.96,10.48,1.22,6.8,3.66,11.17,3.7,11.07,0,.05-1.93-1.22-2.27.49,1.75.88,6.41,7.04,14.6,8.66Z"/>
      <path class="cls-1" d="M98.75,7.08c-1,.28-1.57.42-2.01.06l-.2-.17-.05.26c-.24,1.18-.09,2,.43,2.33.29.19.67.2,1.11.02-.58.8-.89,1.62-.89,2.39,0,.28.03.55.12.82.32,1.05,1.26,1.84,2.6,2.16l.35.09-.17-.32c-.42-.75-.37-1.16-.33-1.54.02-.23.04-.45-.05-.69h0s-.11-.49-.11-.49c-.1-.36-.2-.81-.22-1.43.45.47,1.19.46,1.93.43h1.55s-.54-.32-.54-.32c-.23-.15-.78-.48-.94-1.19-.1-.3.01-.7.27-1.04.52-.71,1.61-1.09,2.95-1.06l.17.02c.74.05,2.46.18,4.67,1.07,2.04.71,5.48,2.97,5.49,6.99v.11c0,3.47-3.07,7.51-7.7,8.05-3.86.51-8.41-1.19-13.51-5.05l-2.95-2.38c-3.02-2.48-6.13-5.05-9.65-6.63-4.42-2.12-9.56-2.77-13.76-1.76-4.52,1.14-8.24,3.24-11.07,6.23,0,0-.09.09-.16.16-.03.03-.07.05-.1.08l-.25.2.32.08c.07.02.14-.02.24-.12,5.91-4.87,11.97-4.96,13.09-4.31l.1.06.08-.07c.28-.25.36-.49.36-.68,0-.06-.01-.11-.02-.17-.07-.28-.32-.5-.55-.66,3.22-.41,6.49.03,9.73,1.34,4.14,1.85,7.77,4.62,11.29,7.3,2.63,2,5.34,4.07,8.27,5.76,4.35,2.29,9.29,2.48,12.59.47,3.59-2.09,5.53-6.18,4.59-9.72-.97-4.13-4.95-5.9-6.15-6.35-1.96-.76-3.5-.95-4.33-1.05l-.31-.03c-3.12-.11-5.01.41-6.26.75Z"/>
      <path class="cls-1" d="M24.54,105.97c.65-.11,1.28.39,1.4,1.11.12.73-.31,1.4-.96,1.52-.66.1-1.28-.39-1.39-1.11-.12-.72.31-1.41.96-1.52Z"/>
      <path class="cls-1" d="M25.75,102.15c.47-.09.92.27,1,.8.09.53-.23,1.01-.69,1.1-.46.08-.91-.27-1-.79-.08-.52.22-1.02.69-1.1Z"/>
      <path class="cls-1" d="M120.56,103.39c-.27.88-1.18,1.4-2.05,1.18-.86-.22-1.34-1.11-1.07-1.99.28-.87,1.21-1.41,2.06-1.18.86.22,1.33,1.11,1.05,1.99Z"/>
      <path class="cls-1" d="M97.5,105.47c-.23.02,5.74-2.27,13.49.64,3.97,1.23,7.3,5.12,11.21,8.31,3.79,2.9,9.49,5.61,15.27,3.16,5.64-2,8.72-9.1,6.77-14.32-1.37-5.3-5.9-8.78-11.4-7.68-4.59,1.08-7.65,5.26-7.85,8.5-.25,3.26,1.17,5.08,1.61,5.66,1.85,2.62,4.61,2.63,5.86,3.15,1.42.44,2.16,1.06,2.26,1.32,1.53-2.46.7-4.03-.8-4.04,3.12-.87,4.48-3.3,2.17-5.18-.4,1.31-1.08,1.53-1.42,1.97-.42.41-.68,1.18-1.84,2.58.79-1.74-.57-2.42-1.51-3.04.2.66.42,1.62-.17,2.53-.52.85-2.24,1.99-3.94-.38-.34-.53-1.24-2-1.08-4.39.07-2.34,2-5.38,5.27-6.89,3.19-1.59,7.57-.85,9.91,2.56,2.42,3.25,3.12,8.42.61,12.21-2.42,3.75-7.12,5.81-10.92,4.96-3.89-.77-6.97-3.08-9.44-5.08-4.58-4.58-8.96-6.65-8.94-6.55-.01-.04,2.2-.19,1.53-1.86-1.88.38-9.1-1.72-16.65,1.85Z"/>
      <path class="cls-1" d="M45.95,7.07c.73,1.17,1.09,1.76,1.81,2.95,1.5-.34,2.26-.47,3.78-.77-1.06,1.04-1.59,1.57-2.64,2.63.73,1.21,1.1,1.82,1.85,3.05-1.4-.57-2.1-.86-3.48-1.4-1.05,1.09-1.57,1.65-2.61,2.75.19-1.44.28-2.15.48-3.57-1.38-.53-2.06-.8-3.44-1.33,1.49-.35,2.24-.52,3.74-.85.2-1.4.3-2.1.5-3.46Z"/>
      <path class="cls-1" d="M108.32,110.41c1.19,1.57,1.79,2.35,2.98,3.9,1.93-.78,2.89-1.17,4.83-1.95-1.21,1.74-1.8,2.62-3,4.35,1.18,1.55,1.77,2.32,2.95,3.86-1.92-.48-2.88-.73-4.81-1.19-1.2,1.72-1.81,2.57-3.02,4.27.02-1.98.03-2.99.04-5.01-1.93-.47-2.89-.71-4.83-1.19,1.95-.77,2.91-1.16,4.85-1.94,0-2.03.01-3.05.01-5.11Z"/>
      <path class="cls-1" d="M126.39,47.61c1.5,1.23,2.25,1.85,3.73,3.09,1.57-.94,2.36-1.4,3.94-2.33-.67,1.7-1,2.55-1.66,4.27,1.47,1.25,2.2,1.88,3.63,3.15-1.85-.2-2.79-.3-4.66-.5-.66,1.72-.99,2.58-1.65,4.32-.5-1.86-.74-2.78-1.24-4.62-1.89-.19-2.84-.28-4.74-.48,1.59-.94,2.37-1.42,3.95-2.35-.51-1.83-.76-2.74-1.29-4.55Z"/>
      <path class="cls-1" d="M22.86,41.21c-.43,2.38-.63,3.58-1.05,5.96,1.97,1.17,2.97,1.76,4.96,2.93-2.26.3-3.38.46-5.6.75-.41,2.38-.6,3.57-1.01,5.95-.95-2.2-1.43-3.3-2.39-5.48-2.19.3-3.26.45-5.4.75,1.55-1.64,2.33-2.47,3.93-4.12-.95-2.18-1.43-3.26-2.37-5.41,1.92,1.13,2.89,1.7,4.84,2.85,1.61-1.67,2.43-2.5,4.08-4.18Z"/>
      <path class="cls-1" d="M133.02,8.85c-.28,2.53-.39,3.79-.65,6.32,2.18,1.06,3.28,1.59,5.5,2.68-2.38.49-3.55.74-5.88,1.23-.25,2.53-.37,3.79-.61,6.31-1.19-2.23-1.78-3.33-2.96-5.55-2.3.49-3.43.74-5.67,1.22,1.52-1.84,2.29-2.77,3.84-4.62-1.18-2.2-1.77-3.3-2.94-5.48,2.13,1.03,3.21,1.55,5.37,2.6,1.58-1.87,2.38-2.81,4.01-4.7Z"/>
      <path class="cls-1" d="M124.85,91.6c.99-.47,1.48-.7,2.46-1.16-.19-1.12-.3-1.68-.5-2.78.81.83,1.22,1.25,1.99,2.09.96-.45,1.44-.66,2.4-1.1-.47.96-.71,1.45-1.19,2.42.79.85,1.18,1.27,1.96,2.11-1.07-.24-1.62-.36-2.7-.61-.49.98-.73,1.46-1.21,2.45-.18-1.13-.28-1.69-.46-2.83-1.08-.24-1.65-.35-2.75-.59Z"/>
      <path class="cls-1" d="M123.54,96.72c-.38.06-.74-.22-.8-.63-.05-.4.22-.77.61-.81.38-.06.74.22.8.63.06.4-.22.77-.61.81Z"/>
      <path class="cls-1" d="M146.3,42.55c-.7-4.41-3.95-8.84-8.11-11.28-4.16-2.44-10.92-3.39-15.85-.61-4.26,2.86-4.99,8.26-1.99,11.21.1.07.2.13.3.19l-.09.04c2.86,2,5.01.98,6.19,1.33,1.3.13,1.97.54,2.33,1.08,1.26-1.86.62-2.99-1.19-2.8,3.56-1.15,3.91-3.01,3.33-5.3-2.35,1.51-1.82,1.56-3.39,4.13.35-1.31-1.21-1.9-2.65-2.42.13.19.57.93.35,1.96-.09.6-.81,1.68-2.07,1.89-1.8-.53-3.46-2.35-3.26-4.85.61-3.54,3.44-6.65,8.23-6.49,4.69-.1,9.59,1.98,12.68,5.64,6.27,6.83,4.59,16.51-1.22,22.96-4.89,5.15-10.09,5.75-9.92,5.91,2.15-.06,9.46-1.8,13.74-9.38,1.96-3.61,3.3-8.79,2.6-13.2Z"/>
      <path class="cls-1" d="M21.35,100.28s-.8,1.23-1.23,3.34c-.55,2.08-.61,5.09,1.52,7.42,1.94,2.39,4.67,4.19,7.2,4.02,2.51,0,4.16-1.17,5.01-1.36-.02-.05-.94,1.25-3.24,1.99-2.25.81-6.05.07-8.47-2.23-2.52-2.31-4.05-6.12-3.21-8.65.51-2.56,1.74-4.24,2.41-4.54Z"/>
      <path class="cls-1" d="M21.96,67.48c.04.06-1.33.13-2.64,1.39-1.29,1.23-2.04,3.78-1.41,6.16.53,2.43,2.51,4.21,4.54,4.38,2.02.51,3.3-.42,4.1-.51-.04-.11-.76,1.17-2.78,1.48-1.84.31-5.07-.49-6.37-3.34-1.36-2.63-.99-5.9.45-7.81,1.51-1.96,3.61-2.01,4.1-1.75Z"/>
      <path class="cls-1" d="M130.56,103.17c.07.07.28-1.36,1.87-2.66,1.51-1.31,4.74-1.65,6.66.56,1.89,2.04,2.32,5.35,1.53,7.7-.81,2.49-2.7,3.47-3.33,3.49-.06-.03,1.12-.74,1.99-2.46.81-1.7.93-4.45-.22-6.58-1.03-2.2-3.45-3.11-5.25-2.45-1.86.5-2.64,2.09-3.25,2.4Z"/>
      <path class="cls-1" d="M89.57,11.96s1.66.65,3.86,2.25c2.23,1.46,5.04,4.05,8.38,5.26,3.37,1.06,7.58.72,8.37-1.92,1.06-2.53-.36-4.57-.75-5.42-.15.02,1.85,1.05,2.04,3.92-.04,1.31-.4,3.05-1.92,4.16-1.5,1.1-3.6,1.28-5.55,1.05-4.17-.35-7.44-3.45-9.74-5.29-2.35-2.05-4.15-3.36-4.69-4.01Z"/>
      <path class="cls-1" d="M104.33,112.02s-5.07-2.98-9.65-2.14c3.24-2.19,6.63-1.87,9.65,2.14Z"/>
      <path class="cls-1" d="M99.21,112.03s-6.29,1.17-8.67,4.05c1.78-3.42,2.81-5.45,8.67-4.05Z"/>
      <path class="cls-1" d="M52.92,112.22c.83-.36,1.83.06,2.23.93.4.86.06,1.85-.77,2.2-.82.36-1.82-.06-2.22-.92-.4-.86-.06-1.85.76-2.21Z"/>
      <path class="cls-1" d="M54.21,116.39c.6-.25,1.33.04,1.62.62.3.59.04,1.25-.56,1.49-.61.24-1.33-.03-1.63-.61-.29-.58-.04-1.25.57-1.49Z"/>
      <path class="cls-1" d="M56.69,114.97c.44-.18.96.02,1.18.44.21.42.02.91-.42,1.09-.44.17-.96-.03-1.17-.45-.21-.43-.03-.92.41-1.08Z"/>
      <path class="cls-1" d="M140.8,78.98c.46.36.5,1.05.09,1.52-.4.47-1.1.57-1.56.2-.46-.37-.5-1.05-.09-1.53.41-.47,1.11-.56,1.56-.19Z"/>
      <path class="cls-1" d="M48.82,106.49c-3.42,2.26-5.18,6.52-4.18,10.14,1.05,4.23,4.95,5.95,6.12,6.39,1.94.73,3.43.87,4.24.95l.29.03c3.02.04,4.83-.55,6.04-.94.97-.31,1.49-.48,1.93-.12l.22.17.05-.27c.21-1.25.03-2.11-.5-2.42-.29-.16-.64-.15-1.04.02.52-.82.8-1.63.8-2.39,0-.35-.05-.68-.16-1-.35-1.04-1.29-1.81-2.55-2.09l-.36-.08.18.33c.42.76.39,1.2.37,1.59-.02.23-.03.46.06.7h0s.12.5.12.5c.09.36.19.83.24,1.45-.45-.45-1.16-.42-1.86-.38l-1.5.04.52.33c.23.14.76.46.94,1.21.02.08.04.17.04.27,0,.24-.08.55-.31.87-.3.41-1.06,1.1-2.78,1.1h-.16c-.71-.04-2.39-.12-4.55-.98-2.58-.87-5.38-3.46-5.49-7.07,0-.09,0-.18,0-.26,0-3.56,2.84-7.67,7.23-8.34,3.73-.63,8.16,1,13.19,4.84l2.91,2.37c2.99,2.48,6.08,5.04,9.53,6.58,4.33,2.07,9.34,2.6,13.36,1.45,4.35-1.3,7.91-3.56,10.56-6.72,0,0,.09-.1.15-.17.04-.03.07-.06.1-.09l.24-.21-.32-.08c-.08-.01-.14.03-.24.14-5.5,5.1-11.47,5.41-12.53,4.8l-.11-.06-.08.09c-.26.25-.33.49-.33.67,0,.08,0,.15.03.21.08.27.31.5.55.65-3.11.5-6.28.14-9.44-1.11-4.06-1.8-7.63-4.57-11.11-7.22-2.59-1.99-5.28-4.05-8.15-5.71-4.28-2.25-9.07-2.31-12.22-.14Z"/>
      <path class="cls-1" d="M70.08,117.77s-1.62-.63-3.8-2.21c-2.19-1.44-4.98-4.04-8.24-5.2-3.29-1-7.36-.53-8.05,2.21-.91,2.49.47,4.7.87,5.56.13,0-1.83-1.03-2.08-3.97-.12-1.41.31-3.16,1.75-4.36,1.42-1.16,3.45-1.41,5.35-1.21,4.04.24,7.27,3.34,9.56,5.18,2.34,2.05,4.1,3.35,4.64,4Z"/>
      <path class="cls-1" d="M138.85,44.26c-.26.64-.94.93-1.53.65-.6-.28-.87-1.03-.63-1.67.24-.64.93-.92,1.52-.64.59.28.9,1.03.64,1.67Z"/>
      <path class="cls-1" d="M138.46,48.4c-.17.44-.63.64-1.04.45-.4-.19-.59-.7-.42-1.14.17-.44.64-.64,1.04-.45.4.2.59.7.41,1.14Z"/>
      <path class="cls-1" d="M99.64,93.52c-9.26,5.76-21.7,7.23-32.35,4.68-5.24-1.13-10.21-3.56-14.35-6.92-.33-.64-.57-1.28-.71-1.9-.38-1.46-.23-2.6.39-3.4.82-1.02,2.44-1.52,4.87-1.49l.05-.31c-4.22-1.39-6.69-1.51-7.76-.39-.33.36-.5.86-.54,1.47-.08-.52-.13-1.01-.13-1.49,0-1.11.22-2.1.69-2.9.74-1.27,2-2,3.76-2.17l.03-.31c-2.47-.75-4.27-.71-5.35.12-.82.63-1.23,1.72-1.23,3.23,0,.1,0,.2,0,.3,0,.3.06.62.09.93-.16-.61-.3-1.23-.38-1.83-.11-.74-.16-1.45-.16-2.12,0-3.45,1.43-5.82,3.91-6.27l.6-.11-.59-.2c-2.58-.88-3.98,0-4.71.9-.8.99-1.18,2.48-1.18,4.22,0,.92.15,1.94.36,2.97-.45-1.49-.79-3.1-.88-4.73-.03-.42-.05-.85-.05-1.26,0-4.08,1.52-7.38,3.91-8.26l.5-.19-.51-.11c-1.45-.35-2.71.06-3.63,1.18-.97,1.18-1.49,3.09-1.6,5.27-.02-.32-.06-.62-.06-.94,0-.58.02-1.17.07-1.76.26-4.15,2.01-8.01,4.36-9.58l.35-.24-.42-.06c-1.03-.14-2.02.28-2.86,1.2-1.34,1.46-2.23,4.01-2.53,6.84.12-5.32,2.01-10.08,5.51-13.56l-.17-.26c-2.27.83-4.22,3.4-5.35,6.73,1.28-5.57,4.55-11.47,7.93-13.61l-.15-.29s-.02.01-.02.01h0c-3.13,1.38-6.01,4.84-7.63,8.93,1.71-6.76,5.46-13.06,10.72-17.96l-.2-.25s-.01,0-.02.01h0c-8.16,6.17-12.72,15.91-12.72,26.74,0,1.83.13,3.69.39,5.57.29,2.1.74,4.13,1.34,6.1.75,3.27,2.03,6.42,3.73,9.36,2.59,4.48,6.67,8.94,11.93,12.05,5.32,3.05,11.61,4.6,17.78,4.94,11.19.66,22.48-3.23,30.66-10.72,6.72-6.01,8.36-11.93,8.37-11.82-3.46,5.85-8.37,10.2-14.07,13.65Z"/>
      <path class="cls-1" d="M103.07,33.2c-.05-.05-.11-.1-.16-.16-.02,0,.05.07.16.16ZM112.48,44.04c-3.88-6.61-8.53-10.07-9.41-10.84,5.83,6.2,7.52,11.96,7.19,13.5.85.4,1.34.03,1.6-.41,1.05,3.11,1.69,6.35,2.01,9.35,1.13,9.35-1.98,19.71-8.23,25.9-6.16,7.23-17.93,11.86-27.64,11.42-3.4-.13-6.31-.54-8.54-.95-2.83-1.71-2.17-3.68-1.58-4.62-2.1.16-3.6.97-2.5,2.9-2.96-3.34-3.96-3.51-7.4-4.03,1.1,3.27,1.76,3.36,5.9,4.61-1.89-.02-2.54,1.79-1.42,4.04.39-.62,1.9-2.1,8.37-.2,1.54.37,10.32,2.11,20.19-.28,11.04-2.53,19.88-10.89,23.91-21.04,3.54-9.64,3.03-20.32-2.46-29.34Z"/>
      <path class="cls-1" d="M41.84,20.99c-.87-3.62-3.43-6.53-6.58-7.97-3.03-1.59-6.75-2.11-9.96-.97-3.24,1.04-5.77,3.39-7.38,5.93-3.44,5.26-1.95,11.45.62,14.15,2.54,2.91,5.31,3.47,6.25,3.58,3.94.33,6.33-1.18,8-1.59,1.65-.5,2.58-.58,2.77-.4.73-3.33-.81-4.11-2.06-2.88,2.37-3.78,1.69-5.42-.79-7.25-.08,3.19.4,3.55-.46,7.56.21-2.1-1.29-1.6-2.42-1.46.41.41.9,1.04.45,2.18-.4.99-2.29,2.9-5.73,2.35-.79-.12-2.85-.77-4.82-2.92-1.99-2.01-3.33-6.28-1.67-10.58,1.58-4.2,6.27-8.29,11.64-7.88,5.21.42,10.53,4.17,11.03,9.98.48,5.75-.64,11.5-2.59,16.89-.95,2.82-1.64,5.61-2.12,8.27-.19-.62-.59-1.18-1.45-.28-.47,7.37.19,15.03,3.9,21.57-2.69-5.75-3.13-12.27-1.75-18.43h0c1.33-6.29,3.2-12.04,4.95-18.58.74-3.75,1.03-7.64.18-11.26Z"/>
      <path class="cls-1" d="M40.21,107.79c-.79-1.66-2.23-2.74-3.65-3.17l.04-.06c-.36-.08-.69-.13-1-.14-.79-.09-1.51.04-2.06.38-.9.36-1.56.84-2.08.92-.95.35-1.58.25-2.05-.03-.15,1.85.73,2.52,1.93,1.74-2.05,2.12-1.58,3.69-.3,5.25,1.07-1.97.68-1.82.78-4.35.26,1.14,1.57,1.06,2.77.97-.16-.1-.75-.52-.99-1.4-.24-.72.47-2.42,2.23-2.07l.03-.04s0,0,.01,0c2.48.54,4.31,3.22,2.77,6.54-2.29,6.95-15.26,8.77-20.19,1.26-2.39-3.6-2.58-8.45-1.15-12.22,1.34-3.93,4.77-6.13,7.43-8.06,6.01-3.48,7.04-8.37,7.01-8.22-.62.78-1.36,2.55-3.34,4.17-1.86,1.71-4.45,3.11-7.63,5.57-7.63,5.12-8.91,19.41,1.08,24.14,4.55,2.08,9.73,1.6,13.55-.75,3.78-2.3,6.25-6.96,4.8-10.42Z"/>
      <path class="cls-1" d="M27.3,28.9c-.03-.05-.2.61-1.19,1-.98.38-2.62-.04-3.96-1.3-3.08-2.29-2.82-9.6,2.53-11.84,4.69-2.59,11.58-.22,12.99,4.38,1.77,4.21.69,7.75-.05,8.72-.05.02.67-2.39-.18-5.85-.62-3.49-4.36-7.57-9.24-6.67-4.85.28-8.04,5.29-6.39,8.8,1.43,3.64,4.89,3.81,5.49,2.77Z"/>
      <path class="cls-1" d="M99.82,27.15c-.17.13,6.62,2.49,13.56,10.56,6.89,7.76,12.59,22.61,8.48,37.29-3.62,14.82-16.81,25.89-28.73,29.4-12.07,3.93-22.12,1.57-25.13-.14-.05-.18,6.88,2.21,17.29.2,10.24-1.66,23.78-8.75,30.75-21.43,7.18-12.53,5.65-28.61-.22-38.67-5.66-10.42-13.82-15.23-15.99-17.21Z"/>
      <polygon class="cls-1" points="30.37 91.98 32.6 95.79 36.87 94.84 33.97 98.15 36.2 101.97 32.18 100.2 29.27 103.52 29.69 99.11 25.67 97.35 29.95 96.39 30.37 91.98"/>
      <path class="cls-1" d="M146.89,77.75c.04-4.09-2.68-9.03-7.68-10.01-3.16-.56-5.58.17-7.48,1.52-4.23,2.26-6.19,8.03-7.45,12.86-1.3,5.12-3.17,10.16-6.5,12.36-3.31,2.07-6.13,2.11-6.06,2.24,1.17.11,5.34.22,8.85-3.42,3.37-3.58,4.44-9.26,5.94-14.21.51-1.95,1.31-3.78,2.32-5.34,1.52-2.14,3.45-3.83,5.94-4.59,5.31-1.82,10.24,2.37,10.79,6.8.96,4.44-1.31,8.42-3.88,9.65-2.55,1.55-4.59,1.06-5.21.85-2.77-1.19-2.38-3.78-1.58-4.47.85-.88,1.86-.87,2.16-.9-1.56-.4-2.95-1.83-4.2-.67,1.86-3,2.09-2.14,3-5.45-2.6-.07-5.39,1.6-4.22,6.23-1.02-1.97-2.63-2.03-3.65,1.04.82-.08,1.68.36,2.84,1.44,1.19.97,2.43,3.07,5.81,4.03.8.3,3.03.38,5.45-1.01,2.45-1.26,4.96-4.7,4.81-8.95Z"/>
      <path class="cls-1" d="M92.94,32.74c-15.87-5.89-35.4,1.11-40.88,16.17-5.48,15.07,1.84,32.13,17.71,38.02,15.86,5.89,34.26-1.64,39.74-16.69,5.47-15.07-.71-31.61-16.58-37.5ZM104.75,43.98c.68.56.78,1.59.23,2.29-.54.7-1.52.81-2.18.24-.67-.56-.78-1.59-.24-2.29.54-.69,1.52-.8,2.2-.24ZM82.35,65.39c5.2.95,11.52-3.81,11.01-10.56.29-6.69-5.94-12.47-13-12.56-7.1-.54-13.64,4.53-15.46,11.11-2.41,6.5-1.16,13.56,2.74,17.93,8.22,9.02,19.32,8.21,22.48,7.36.31-.06-7.31,3.78-17.61-1.32-4.89-2.36-10.17-7.63-10.91-14.98-.76-6.98,1.76-15.5,8.75-19.9,6.79-4.29,16.77-3.27,21.98,3.05,5.1,6.27,3.89,16.29-2.51,19.94-6.1,3.81-13.88.33-14.88-4.58-1.45-4.51.42-8.07,1.86-8.77.11,0-1.6,1.28-1.62,4.46-.24,2.88,1.72,8.17,7.17,8.82ZM81.7,57.71c-.62.17-1.25-.23-1.4-.88-.15-.66.24-1.32.87-1.49.62-.17,1.26.23,1.4.89.15.65-.25,1.32-.87,1.49ZM81.67,61.28c-.41.22-.92.07-1.13-.34-.21-.41-.05-.93.37-1.16.41-.22.93-.07,1.14.34.21.4.04.93-.38,1.16ZM85.19,56.78c1.06-.28,2.12.38,2.38,1.48.25,1.1-.4,2.22-1.46,2.51-1.06.29-2.12-.38-2.37-1.48-.25-1.1.4-2.23,1.45-2.51ZM81.33,75.61c-10.29-1.51-16.55-11.79-12.38-21.83,3.37-6.93,10.86-7.37,12.09-6.61,4.65.98,6.67.24,7.11-.34.32,2.29-.7,3.47-2,3.32,2.41,1.42,2.87,2.07,2,4.52-1.98-1.29-2.19-1.35-3.09-4.19.1,1.69-1.19,2.05-2.27,2.3.75-.77,1.94-3.74-2.75-4.62-.9-.23-5.71-.14-9.1,5.05-3.75,4.98-1.66,14.92,5.14,18.9,5.91,4.08,15.15,1.44,19.13-2.55,4.26-3.98,5.89-8.02,5.92-7.93-.02.04-1.52.97-2.15-.43,1.36-.55,4.57-5.23,3.91-12.6-.02-.09-.03-.14,0-.14,0,.05,0,.09,0,.14.18.82,1.69,5.59-.37,12.35-3.19,9.41-11.86,15.62-21.2,14.67ZM101.02,40.29c.48-.27,1.07-.09,1.31.39.26.47.05,1.07-.42,1.33-.47.25-1.06.07-1.31-.4-.24-.48-.05-1.07.42-1.32ZM98.25,37.82c.37-.05.7.22.76.6.06.37-.2.72-.57.77-.37.05-.7-.22-.76-.6-.05-.38.21-.73.58-.78ZM69.52,36.19c3.86-2.06,10.02-3.15,16.12-1.76,6.18,1.25,11.59,6.22,13.21,11.36,1.88,5.19.07,9.46-.9,10.49-.13.02,1.16-2.8.35-7.06-.67-4.25-4.28-9.3-9.53-11.71-5.3-2.33-11.6-2.33-16.15-1.08-4.62,1.21-7.38,3.67-8.64,4.2.23-.21,1.82-2.57,5.54-4.44ZM106.7,64.73s-1.32,4.54-5.61,9.93c-5.28,6.75-13.44,10.59-22.09,10.03-9.28-.91-17.34-6.31-21.79-14.37-3.65-7.28-2.36-13.53-2.09-14.94,1.47-5.95.75-7.87-.67-8.86,1.86-1.1,3.31-.52,3.37,1.56.77-4.03,2.35-4.51,4.94-4.74-.57,3.26-.9,2.82-3.57,4.8,1.53-.39,2.52,1.23,3.22,3.11-.28-.29-4.38-1.99-6.04,3.93-.24,1.22-2.07,8.37,2.78,16.25,5.7,8.75,16.28,13.65,26.72,11.57,9.88-2.44,17.19-10.42,20.08-19.88,2.56-7.86,1.27-13.53,1.49-13.46,1.85,7.79.73,14.5,1.29,16.52-1.52.82-2.04-1.46-2.05-1.44Z"/>
      <path class="cls-1" d="M127.57,33.13c-.02.06,2.02-.58,5.09.16,2.98.66,7.11,2.93,8.86,7.18,3.11,8.78-2.7,18.21-5.35,17.95-.05-.02,1.93-.96,3.25-3.79,1.38-2.72,2.29-6.89,1.79-11.03-.3-4.22-3.69-7.49-6.77-8.87-3.12-1.5-5.89-1.44-6.87-1.6Z"/>
      <path class="cls-1" d="M31.76,48.52s.95-6.38-1.18-10.54c2.97,2.36,3.84,5.86,1.18,10.54Z"/>
      <path class="cls-1" d="M115.81,22.36s4.32-4.31,2.64-10.38c2.6,3.17,2.94,8.21-2.64,10.38Z"/>
      <path class="cls-1" d="M41.41,97.32s4.88,4.15,11.77,2.84c-4.1,2.13-8.8,2.59-11.77-2.84Z"/>
    </g>
  </g>
  <g>
    <g>
      <path class="cls-2" d="M152.05,170.13c-.72-1.66-2.18-2.77-4.6-2.74-.17.02-.33.04-.5.06-.28.08-.57.16-.85.24-1.28.51-2.2,1.48-2.7,2.77-1.1,2.79.74,5.26,2.62,6.07.54.23,1.39.49,2.2.35,1.92-.32,3.19-1.2,3.86-2.75.15-.34.25-.73.34-1.13.22-1.05-.06-2.16-.37-2.88ZM151.33,173.77c-.56,1.36-1.57,2.12-3.23,2.4-.71.12-1.42-.15-1.85-.37-1.45-.74-2.77-2.62-2.04-4.92.37-1.16,1.2-2.08,2.3-2.51.27-.07.54-.14.8-.21.12-.01.24-.02.35-.03,2.78-.01,4.84,2.8,3.67,5.65Z"/>
      <path class="cls-2" d="M148.67,172.3c.06-.13.29-.14.4-.21.21-.13.43-.34.53-.58.12-.29.12-.76.02-1.06-.43-1.21-2.15-.96-3.54-.85v5.29h.84v-2.28c2.23-.03,1.45.9,2.09,2.28h.88c-.08-.25-.16-.49-.24-.74-.19-.78-.16-1.72-.98-1.85ZM146.92,171.97v-1.8c.82-.05,2.06-.03,1.91.95-.12.85-.92.87-1.91.85Z"/>
    </g>
    <g>
      <g>
        <path class="cls-3" d="M24.5,155.45c-2.83,3.56-6.8,5.23-10.85,5.23-7.6,0-13.65-5.79-13.65-13.25s6.04-13.25,13.65-13.25c4.06,0,8.02,1.66,10.85,5.23l-3.89,2.91c-1.62-2.34-4.09-3.68-6.97-3.68-4.57,0-8.71,3.85-8.71,8.79s4.13,8.78,8.71,8.78c2.88,0,5.43-1.33,7.05-3.52l3.8,2.75Z"/>
        <path class="cls-3" d="M38.93,134.18c7.61,0,13.64,5.8,13.64,13.25s-6.03,13.25-13.64,13.25-13.65-5.79-13.65-13.25,6.03-13.25,13.65-13.25ZM38.93,156.21c4.58,0,8.71-3.84,8.71-8.78s-4.13-8.79-8.71-8.79-8.72,3.85-8.72,8.79,4.14,8.78,8.72,8.78Z"/>
        <path class="cls-3" d="M57.79,152.13h-3.04v-4.45h3.04v-12.96h12.11c5.66,0,9.15,3.72,9.15,8.71s-3.49,8.7-9.15,8.7h-7.41v8.02h-4.7v-8.02ZM62.49,147.68h7.04c3.32,0,4.82-1.99,4.82-4.25s-1.5-4.26-4.82-4.26h-7.04v8.51Z"/>
        <path class="cls-3" d="M83.3,152.13h-3.04v-4.45h3.04v-12.96h12.11c5.68,0,9.15,3.72,9.15,8.71s-3.47,8.7-9.15,8.7h-7.41v8.02h-4.7v-8.02ZM88,147.68h7.04c3.33,0,4.83-1.99,4.83-4.25s-1.5-4.26-4.83-4.26h-7.04v8.51Z"/>
        <path class="cls-3" d="M107.53,144.88v-10.17h19.53v4.45h-14.82v5.72h10.32v4.45h-10.32v6.36h14.82v4.45h-19.53v-15.26Z"/>
        <path class="cls-3" d="M132.09,152.13h-3.03v-4.45h3.03v-12.96h12.11c5.67,0,9.15,3.72,9.15,8.71,0,3.68-2.55,6.6-5.95,7.65l6.36,9.07h-5.91l-5.31-8.02h-5.75v8.02h-4.71v-8.02ZM136.8,147.68h7.04c3.32,0,4.82-1.99,4.82-4.25s-1.5-4.26-4.82-4.26h-7.04v8.51Z"/>
      </g>
      <g>
        <path class="cls-3" d="M65.61,167.07c7.61,0,13.65,5.79,13.65,13.25s-6.03,13.23-13.65,13.23-13.65-5.79-13.65-13.23,6.04-13.25,13.65-13.25ZM65.61,189.09c4.57,0,8.7-3.84,8.7-8.78s-4.13-8.8-8.7-8.8-8.71,3.85-8.71,8.8,4.13,8.78,8.71,8.78Z"/>
        <path class="cls-3" d="M95.82,167.07c7.6,0,13.64,5.79,13.64,13.25s-6.04,13.23-13.64,13.23-13.65-5.79-13.65-13.23,6.03-13.25,13.65-13.25ZM95.82,189.09c4.57,0,8.7-3.84,8.7-8.78s-4.13-8.8-8.7-8.8-8.71,3.85-8.71,8.8,4.14,8.78,8.71,8.78Z"/>
        <polygon class="cls-3" points="136.12 167.6 131.43 167.6 131.43 183.35 113.21 167.07 110.21 170.43 113.21 173.09 113.21 193.03 117.9 193.03 117.9 177.32 124.12 182.85 128.96 187.18 128.98 187.18 136.12 193.55 136.12 167.6"/>
        <polygon class="cls-3" points="35.89 183.36 23.36 167.07 19.8 169.8 23.36 174.46 23.36 193.03 28.07 193.03 28.07 180.59 35.89 190.85 43.7 180.59 43.7 193.03 48.39 193.03 48.39 167.07 35.89 183.36"/>
      </g>
    </g>
    <g>
      <path class="cls-2" d="M27.34,202.02c2.29-.04,4.12.97,5.04,2.3-.01.02-.02.03-.03.05-.55.41-1.11.82-1.66,1.23-.11-.13-.21-.27-.32-.4-.35-.44-.92-.78-1.48-1-2.13-.83-3.98.63-4.7,1.93-.22.4-.31.88-.4,1.42-.06.36.01.8.08,1.07.37,1.53,1.31,2.54,2.76,2.98,1.55.46,3.64-.43,4.08-1.42.56.4,1.12.81,1.67,1.21-.01.01-.02.02-.03.03-.19.4-.68.74-1.02,1-.66.5-1.4.88-2.33,1.12-2.33.59-4.86-.51-5.85-1.74-.47-.59-.9-1.18-1.2-1.94-1.28-3.29.89-6.33,3.08-7.28.47-.2.98-.35,1.53-.46.26-.03.52-.05.78-.08h0Z"/>
      <path class="cls-2" d="M75.5,202.26v1.94h-6.52v2.69h4.54v1.96h-4.54v4.57h-2.06v-4.57h-1.34v-1.96h1.34v-4.65c2.86,0,5.72.01,8.58.02h0Z"/>
      <path class="cls-2" d="M87.06,202.25c2.86,0,5.73.01,8.59.02v1.94h-6.52v2.69h4.54v1.96h-4.54v4.57h-2.07v-4.57h-1.32v-1.96h1.32v-4.65h0Z"/>
      <path class="cls-2" d="M115.91,202.25v1.96c-2.17,0-4.35.01-6.52.02v2.5h4.54v1.96h-4.54c0,.93.01,1.86.02,2.79h6.5v1.96h-8.58v-11.17c2.86,0,5.72-.01,8.58-.02h0Z"/>
      <path class="cls-2" d="M136.06,202.25v1.96h-6.52v2.52h4.54v1.96h-4.54v2.79h6.52v1.96h-8.58c0-3.72-.01-7.45-.02-11.17,2.86,0,5.73-.01,8.59-.02h0Z"/>
      <path class="cls-2" d="M53.84,205.53c-.89-2.08-2.81-3.55-5.82-3.51-.22.02-.44.04-.65.06-.41.08-.83.16-1.2.3-1.67.65-2.86,1.8-3.51,3.47-.23.59-.44,1.49-.32,2.31.06.43.05.78.16,1.15.56,1.93,1.77,3.22,3.55,3.92.58.23,1.65.57,2.53.43.54-.08,1.04-.1,1.5-.24,1.73-.52,3.06-1.65,3.75-3.22.17-.4.3-.83.4-1.29.26-1.21-.03-2.53-.4-3.39ZM51.91,209.24c-.57,1.39-1.64,2.19-3.33,2.47-.66.11-1.3-.14-1.72-.32-1.5-.64-2.9-2.48-2.18-4.73.35-1.08,1.17-1.94,2.17-2.38.28-.08.56-.17.84-.25.12-.02.24-.03.37-.05.65,0,1.15.06,1.61.24,1.6.63,3.18,2.71,2.25,5.02Z"/>
    </g>
  </g>
</svg>