<?xml version="1.0" encoding="UTF-8" standalone="no"?>
<svg width="512" height="512" viewBox="0 0 512 512" fill="none" xmlns="http://www.w3.org/2000/svg">
  <circle cx="256" cy="256" r="250" stroke="#000000" stroke-width="2" fill="none"/>
  <g>
    <!-- Geodesic sphere wireframe pattern -->
    <path d="M256 6 L106 106 L106 406 L256 506 L406 406 L406 106 Z" stroke="#000000" stroke-width="2" fill="none"/>
    <path d="M106 106 L256 206 L406 106" stroke="#000000" stroke-width="2" fill="none"/>
    <path d="M106 406 L256 306 L406 406" stroke="#000000" stroke-width="2" fill="none"/>
    <path d="M256 6 L256 206" stroke="#000000" stroke-width="2" fill="none"/>
    <path d="M256 306 L256 506" stroke="#000000" stroke-width="2" fill="none"/>
    <path d="M106 256 L256 256 L406 256" stroke="#000000" stroke-width="2" fill="none"/>
    <!-- Additional geodesic lines -->
    <path d="M181 56 L331 156 L331 456" stroke="#000000" stroke-width="2" fill="none"/>
    <path d="M331 56 L181 156 L181 456" stroke="#000000" stroke-width="2" fill="none"/>
    <path d="M156 181 L256 331 L456 331" stroke="#000000" stroke-width="2" fill="none"/>
    <path d="M156 331 L256 181 L456 181" stroke="#000000" stroke-width="2" fill="none"/>
  </g>
</svg>
