<?xml version="1.0" encoding="UTF-8" standalone="no"?>
<svg width="512" height="512" viewBox="0 0 512 512" fill="none" xmlns="http://www.w3.org/2000/svg">
  <!-- Outer circle -->
  <circle cx="256" cy="256" r="240" stroke="#000000" stroke-width="2" fill="none"/>
  
  <!-- Geodesic icosahedron wireframe pattern -->
  <!-- Top pentagon -->
  <path d="M256 16 L156 76 L196 176 L316 176 L356 76 Z" stroke="#000000" stroke-width="1.5" fill="none"/>
  
  <!-- Upper band of triangles -->
  <path d="M156 76 L96 156 L196 176 Z" stroke="#000000" stroke-width="1.5" fill="none"/>
  <path d="M96 156 L136 256 L196 176 Z" stroke="#000000" stroke-width="1.5" fill="none"/>
  <path d="M196 176 L136 256 L256 256 L316 176 Z" stroke="#000000" stroke-width="1.5" fill="none"/>
  <path d="M316 176 L256 256 L376 256 L416 156 Z" stroke="#000000" stroke-width="1.5" fill="none"/>
  <path d="M356 76 L416 156 L316 176 Z" stroke="#000000" stroke-width="1.5" fill="none"/>
  
  <!-- Horizontal bands -->
  <path d="M96 156 L136 256 L256 256 L376 256 L416 156" stroke="#000000" stroke-width="1.5" fill="none"/>
  
  <!-- Lower band of triangles -->
  <path d="M136 256 L96 356 L196 336 Z" stroke="#000000" stroke-width="1.5" fill="none"/>
  <path d="M136 256 L196 336 L256 256 Z" stroke="#000000" stroke-width="1.5" fill="none"/>
  <path d="M256 256 L196 336 L316 336 L376 256 Z" stroke="#000000" stroke-width="1.5" fill="none"/>
  <path d="M376 256 L316 336 L416 356 Z" stroke="#000000" stroke-width="1.5" fill="none"/>
  
  <!-- Bottom pentagon -->
  <path d="M196 336 L156 436 L256 496 L356 436 L316 336 Z" stroke="#000000" stroke-width="1.5" fill="none"/>
  
  <!-- Vertical connections -->
  <path d="M96 156 L96 356" stroke="#000000" stroke-width="1.5" fill="none"/>
  <path d="M416 156 L416 356" stroke="#000000" stroke-width="1.5" fill="none"/>
  <path d="M96 356 L156 436" stroke="#000000" stroke-width="1.5" fill="none"/>
  <path d="M416 356 L356 436" stroke="#000000" stroke-width="1.5" fill="none"/>
  
  <!-- Central vertical lines -->
  <path d="M256 16 L256 256" stroke="#000000" stroke-width="1" fill="none"/>
  <path d="M256 256 L256 496" stroke="#000000" stroke-width="1" fill="none"/>
  
  <!-- Additional triangular subdivisions for complexity -->
  <path d="M156 76 L316 176" stroke="#000000" stroke-width="1" fill="none"/>
  <path d="M356 76 L196 176" stroke="#000000" stroke-width="1" fill="none"/>
  <path d="M196 336 L356 436" stroke="#000000" stroke-width="1" fill="none"/>
  <path d="M316 336 L156 436" stroke="#000000" stroke-width="1" fill="none"/>
  
  <!-- More complex geodesic subdivisions -->
  <path d="M76 206 L156 76 L206 76" stroke="#000000" stroke-width="1" fill="none"/>
  <path d="M306 76 L356 76 L436 206" stroke="#000000" stroke-width="1" fill="none"/>
  <path d="M76 306 L156 436 L206 436" stroke="#000000" stroke-width="1" fill="none"/>
  <path d="M306 436 L356 436 L436 306" stroke="#000000" stroke-width="1" fill="none"/>
  
  <!-- Additional icosahedral edges -->
  <path d="M126 106 L186 146 L246 106" stroke="#000000" stroke-width="0.8" fill="none"/>
  <path d="M266 106 L326 146 L386 106" stroke="#000000" stroke-width="0.8" fill="none"/>
  <path d="M126 406 L186 366 L246 406" stroke="#000000" stroke-width="0.8" fill="none"/>
  <path d="M266 406 L326 366 L386 406" stroke="#000000" stroke-width="0.8" fill="none"/>
  
  <!-- Inner triangular patterns -->
  <path d="M176 126 L256 176 L336 126" stroke="#000000" stroke-width="0.8" fill="none"/>
  <path d="M176 386 L256 336 L336 386" stroke="#000000" stroke-width="0.8" fill="none"/>
  <path d="M126 226 L196 256 L126 286" stroke="#000000" stroke-width="0.8" fill="none"/>
  <path d="M386 226 L316 256 L386 286" stroke="#000000" stroke-width="0.8" fill="none"/>
</svg>
