<?xml version="1.0" encoding="UTF-8" standalone="no"?>
<svg width="512" height="512" viewBox="0 0 512 512" fill="none" xmlns="http://www.w3.org/2000/svg">
  <!-- Outer circle -->
  <circle cx="256" cy="256" r="240" stroke="#000000" stroke-width="2" fill="none"/>
  
  <!-- Geodesic sphere wireframe pattern - triangular/pentagonal divisions -->
  <!-- Top pentagon -->
  <path d="M256 16 L156 76 L196 176 L316 176 L356 76 Z" stroke="#000000" stroke-width="1.5" fill="none"/>
  
  <!-- Upper ring of triangles -->
  <path d="M156 76 L96 156 L196 176 Z" stroke="#000000" stroke-width="1.5" fill="none"/>
  <path d="M96 156 L136 256 L196 176 Z" stroke="#000000" stroke-width="1.5" fill="none"/>
  <path d="M196 176 L136 256 L256 256 L316 176 Z" stroke="#000000" stroke-width="1.5" fill="none"/>
  <path d="M316 176 L256 256 L376 256 L416 156 Z" stroke="#000000" stroke-width="1.5" fill="none"/>
  <path d="M356 76 L416 156 L316 176 Z" stroke="#000000" stroke-width="1.5" fill="none"/>
  
  <!-- Middle horizontal lines -->
  <path d="M96 156 L136 256 L256 256 L376 256 L416 156" stroke="#000000" stroke-width="1.5" fill="none"/>
  
  <!-- Lower ring of triangles -->
  <path d="M136 256 L96 356 L196 336 Z" stroke="#000000" stroke-width="1.5" fill="none"/>
  <path d="M136 256 L196 336 L256 256 Z" stroke="#000000" stroke-width="1.5" fill="none"/>
  <path d="M256 256 L196 336 L316 336 L376 256 Z" stroke="#000000" stroke-width="1.5" fill="none"/>
  <path d="M376 256 L316 336 L416 356 Z" stroke="#000000" stroke-width="1.5" fill="none"/>
  
  <!-- Bottom pentagon -->
  <path d="M196 336 L156 436 L256 496 L356 436 L316 336 Z" stroke="#000000" stroke-width="1.5" fill="none"/>
  
  <!-- Outer connections -->
  <path d="M96 156 L96 356" stroke="#000000" stroke-width="1.5" fill="none"/>
  <path d="M416 156 L416 356" stroke="#000000" stroke-width="1.5" fill="none"/>
  <path d="M96 356 L156 436" stroke="#000000" stroke-width="1.5" fill="none"/>
  <path d="M416 356 L356 436" stroke="#000000" stroke-width="1.5" fill="none"/>
  
  <!-- Additional inner triangular patterns -->
  <path d="M256 16 L256 256" stroke="#000000" stroke-width="1" fill="none"/>
  <path d="M256 256 L256 496" stroke="#000000" stroke-width="1" fill="none"/>
  
  <!-- Diagonal connections for more complexity -->
  <path d="M156 76 L316 176" stroke="#000000" stroke-width="1" fill="none"/>
  <path d="M356 76 L196 176" stroke="#000000" stroke-width="1" fill="none"/>
  <path d="M196 336 L356 436" stroke="#000000" stroke-width="1" fill="none"/>
  <path d="M316 336 L156 436" stroke="#000000" stroke-width="1" fill="none"/>
</svg>
